<svg width="50" height="55" viewBox="0 0 50 55" fill="none" xmlns="http://www.w3.org/2000/svg">
<path d="M22.5 10.9173H17.0996C16.3138 10.9173 15.9136 9.97323 16.4601 9.40854L24.3605 1.24479C24.7102 0.883396 25.2898 0.883396 25.6395 1.24479L33.5399 9.40854C34.0864 9.97323 33.6862 10.9173 32.9004 10.9173H27.5V22.3615C25.625 23.5498 23.95 25.0223 22.5 26.7273V10.9173ZM49.3889 27.0363C49.7286 26.6922 49.7314 26.1397 49.3951 25.7923L41.5294 17.6644C40.9732 17.0896 40 17.4834 40 18.2832V23.834C35.6576 23.6495 31.4139 25.204 28.1536 28.1735C24.8933 31.1431 22.868 35.2984 22.5 39.7732C20.6255 40.4609 19.0912 41.8886 18.2337 43.7432C17.3761 45.5979 17.2651 47.7282 17.925 49.6673C18.5906 51.6044 19.9722 53.1897 21.767 54.0759C23.5618 54.962 25.6235 55.0767 27.5 54.3948C29.3729 53.7048 30.9054 52.2768 31.7626 50.4229C32.6199 48.569 32.7322 46.4399 32.075 44.5007C31.325 42.279 29.625 40.5482 27.5 39.7732C28.675 29.4398 38.675 28.9232 39.875 28.9232V34.5051C39.875 35.3006 40.8393 35.6964 41.3982 35.1303L49.3889 27.0363ZM21.575 27.9415C18.2578 25.2961 14.1901 23.8526 10 23.834V18.2832C10 17.4834 9.02685 17.0896 8.4706 17.6644L0.598901 25.7985C0.265009 26.1435 0.265008 26.6912 0.5989 27.0362L8.47059 35.1703C9.02685 35.7451 10 35.3513 10 34.5514V29.0007C13.35 29.0782 16.575 30.2923 19.1 32.6173C19.725 30.964 20.55 29.3882 21.575 27.9415Z" fill="#F47220"/>
</svg>
