<svg width="45" height="44" viewBox="0 0 45 44" fill="none" xmlns="http://www.w3.org/2000/svg">
<path fill-rule="evenodd" clip-rule="evenodd" d="M2.56639 0.125C1.93369 0.125 1.3269 0.37193 0.879513 0.811469C0.432126 1.25101 0.180786 1.84715 0.180786 2.46875C0.180786 3.09035 0.432126 3.68649 0.879513 4.12603C1.3269 4.56557 1.93369 4.8125 2.56639 4.8125L29.6032 4.8125C30.2359 4.8125 30.8427 4.56557 31.2901 4.12603C31.7375 3.68649 31.9888 3.09035 31.9888 2.46875C31.9888 1.84715 31.7375 1.25101 31.2901 0.811469C30.8427 0.37193 30.2359 0.125 29.6032 0.125L2.56639 0.125ZM0.180786 11.8438C0.180786 11.2221 0.432126 10.626 0.879513 10.1865C1.3269 9.74693 1.93369 9.5 2.56639 9.5H19.2656C19.8983 9.5 20.5051 9.74693 20.9525 10.1865C21.3999 10.626 21.6512 11.2221 21.6512 11.8438C21.6512 12.4654 21.3999 13.0615 20.9525 13.501C20.5051 13.9406 19.8983 14.1875 19.2656 14.1875H2.56639C1.93369 14.1875 1.3269 13.9406 0.879513 13.501C0.432126 13.0615 0.180786 12.4654 0.180786 11.8438ZM28.808 36.0625C30.917 36.0625 32.9396 35.2394 34.4309 33.7743C35.9222 32.3091 36.76 30.322 36.76 28.25C36.76 26.178 35.9222 24.1909 34.4309 22.7257C32.9396 21.2606 30.917 20.4375 28.808 20.4375C26.699 20.4375 24.6764 21.2606 23.1851 22.7257C21.6938 24.1909 20.856 26.178 20.856 28.25C20.856 30.322 21.6938 32.3091 23.1851 33.7743C24.6764 35.2394 26.699 36.0625 28.808 36.0625ZM28.808 40.75C31.4608 40.75 33.9196 39.9531 35.9585 38.5906L40.6406 43.1875C40.859 43.4178 41.1224 43.6025 41.415 43.7306C41.7076 43.8587 42.0235 43.9275 42.3439 43.9331C42.6642 43.9387 42.9823 43.8808 43.2794 43.7629C43.5764 43.645 43.8463 43.4696 44.0728 43.247C44.2993 43.0244 44.4779 42.7593 44.5979 42.4675C44.7179 42.1757 44.7768 41.8631 44.7712 41.5484C44.7655 41.2337 44.6954 40.9233 44.565 40.6358C44.4346 40.3483 44.2466 40.0896 44.0123 39.875L39.3333 35.275C40.9297 32.9666 41.694 30.1998 41.5043 27.4152C41.3146 24.6306 40.1818 21.9885 38.2865 19.9098C36.3912 17.831 33.8423 16.4352 31.0459 15.9446C28.2495 15.4541 25.3664 15.897 22.8559 17.2029C20.3455 18.5088 18.352 20.6025 17.1932 23.1505C16.0343 25.6985 15.7767 28.5542 16.4613 31.2627C17.146 33.9712 18.7335 36.3768 20.971 38.0961C23.2086 39.8154 25.9674 40.7497 28.808 40.75ZM2.56639 18.875C1.93369 18.875 1.3269 19.1219 0.879513 19.5615C0.432126 20.001 0.180786 20.5971 0.180786 21.2188C0.180786 21.8404 0.432126 22.4365 0.879513 22.876C1.3269 23.3156 1.93369 23.5625 2.56639 23.5625H9.7232C10.3559 23.5625 10.9627 23.3156 11.4101 22.876C11.8575 22.4365 12.1088 21.8404 12.1088 21.2188C12.1088 20.5971 11.8575 20.001 11.4101 19.5615C10.9627 19.1219 10.3559 18.875 9.7232 18.875H2.56639Z" fill="#F47220"/>
</svg>
