<svg width="56" height="46" viewBox="0 0 56 46" fill="none" xmlns="http://www.w3.org/2000/svg">
<path d="M2.31129 42.4144L18.0386 26.5269L26.5378 34.6644L36.9254 25.584L42.712 31.226M53.8333 6.20898C53.8333 5.18127 53.425 4.19565 52.6983 3.46895C51.9716 2.74224 50.986 2.33398 49.9583 2.33398L6.04163 2.33398C5.01391 2.33398 4.02829 2.74224 3.30159 3.46895C2.57488 4.19565 2.16663 5.18127 2.16663 6.20898V17.834H53.8333V6.20898Z" stroke="#F47220" stroke-width="3.55965" stroke-linecap="round" stroke-linejoin="round"/>
<path d="M53.8333 15.2507V39.7923C53.8333 40.82 53.4251 41.8057 52.6984 42.5324C51.9717 43.2591 50.986 43.6673 49.9583 43.6673H12.5M21.6863 10.084H44.9363M11.3504 10.084H13.9337M2.16666 15.2507L2.16666 26.8757" stroke="#F47220" stroke-width="3.55965" stroke-linecap="round" stroke-linejoin="round"/>
</svg>
