<svg width="377" height="341" viewBox="0 0 377 341" fill="none" xmlns="http://www.w3.org/2000/svg">
<path fill-rule="evenodd" clip-rule="evenodd" d="M374 23.7705C374 12.7248 365.046 3.77054 354 3.77054L1.49999 3.77051C0.671567 3.77051 0 3.09893 0 2.27051C0 1.44208 0.671573 0.770508 1.5 0.770508L375.47 0.770538C375.885 0.770538 376.221 1.1066 376.221 1.52115V1.88211C376.221 2.09731 376.395 2.27176 376.61 2.27176C376.826 2.27176 377 2.44621 377 2.66141L377 339.271C377 340.099 376.329 340.771 375.5 340.771C374.672 340.771 374 340.099 374 339.271L374 23.7705Z" fill="#74D7F7"/>
</svg>
