<svg width="12" height="12" viewBox="0 0 12 12" fill="none" xmlns="http://www.w3.org/2000/svg">
<path d="M11.4864 0.458491C11.3762 0.387002 11.2531 0.337915 11.1239 0.314034C10.9948 0.290153 10.8622 0.291945 10.7338 0.319309C10.6054 0.346673 10.4836 0.399072 10.3754 0.473513C10.2673 0.547954 10.1748 0.642979 10.1034 0.753158L4.50003 9.39016L1.76736 6.86349C1.67095 6.77435 1.55793 6.70506 1.43474 6.6596C1.31155 6.61413 1.18061 6.59338 1.0494 6.59852C0.784416 6.60889 0.534403 6.72411 0.354365 6.91883C0.174327 7.11354 0.0790127 7.3718 0.0893897 7.63679C0.0997667 7.90177 0.214985 8.15179 0.409698 8.33183L3.9977 11.6492C3.9977 11.6492 4.1007 11.7378 4.14836 11.7688C4.25853 11.8404 4.38171 11.8895 4.51086 11.9134C4.64002 11.9373 4.77263 11.9355 4.9011 11.9082C5.02957 11.8808 5.15138 11.8284 5.25959 11.7539C5.36779 11.6794 5.46025 11.5844 5.5317 11.4742L11.781 1.84149C11.8525 1.73134 11.9016 1.60819 11.9255 1.47906C11.9494 1.34994 11.9476 1.21738 11.9202 1.08895C11.8928 0.960514 11.8404 0.838732 11.766 0.730557C11.6916 0.622382 11.5965 0.529933 11.4864 0.458491Z" fill="black"/>
</svg>
