<svg width="20" height="20" viewBox="0 0 20 20" fill="none" xmlns="http://www.w3.org/2000/svg">
<path d="M19.1439 0.763907C18.9603 0.644759 18.755 0.562948 18.5398 0.523146C18.3246 0.483344 18.1037 0.486331 17.8896 0.531938C17.6756 0.577545 17.4726 0.664877 17.2923 0.788945C17.112 0.913013 16.958 1.07139 16.8389 1.25502L7.49999 15.65L2.94555 11.4389C2.78486 11.2903 2.59648 11.1749 2.39117 11.0991C2.18586 11.0233 1.96763 10.9887 1.74895 10.9973C1.3073 11.0146 0.89061 11.2066 0.590547 11.5311C0.290484 11.8557 0.131627 12.2861 0.148922 12.7277C0.166217 13.1694 0.358247 13.5861 0.682769 13.8861L6.66277 19.415C6.66277 19.415 6.83444 19.5628 6.91388 19.6145C7.09748 19.7337 7.30278 19.8156 7.51805 19.8554C7.73331 19.8953 7.95432 19.8923 8.16844 19.8467C8.38255 19.8011 8.58558 19.7137 8.76592 19.5896C8.94626 19.4655 9.10036 19.3071 9.21944 19.1234L19.635 3.06891C19.7541 2.88533 19.836 2.68007 19.8758 2.46486C19.9156 2.24966 19.9126 2.02872 19.867 1.81466C19.8214 1.60061 19.734 1.39764 19.61 1.21735C19.4859 1.03706 19.3275 0.882977 19.1439 0.763907Z" fill="white"/>
</svg>
