<svg width="1023" height="172" viewBox="0 0 1023 172" fill="none" xmlns="http://www.w3.org/2000/svg">
<path d="M1005.74 92.9757V87.0755C1005.74 78.7474 1003.55 72.0494 999.157 66.9813C994.765 61.9083 988.94 59.373 981.673 59.373H963.053C955.333 59.373 949.088 62.023 944.32 67.3205C939.552 72.6204 937.169 79.5844 937.169 88.2102V92.9781H1005.74V92.9757ZM963.053 161.777C950.338 161.777 940.119 158.031 932.401 150.538C924.683 143.044 920.823 133.091 920.823 120.678V88.2077C920.823 75.1922 924.683 64.7071 932.401 56.7597C940.121 48.8123 950.338 44.8374 963.053 44.8374H981.673C993.784 44.8374 1003.55 48.7001 1010.96 56.4205C1018.38 64.1386 1022.09 74.3577 1022.09 87.0731V107.053H937.171V120.676C937.171 128.547 939.555 134.943 944.323 139.862C949.091 144.784 955.335 147.241 963.056 147.241H980.315C987.882 147.241 994.013 145.162 998.706 140.999C1003.4 136.836 1005.74 131.273 1005.74 124.311H1021.64C1021.64 135.512 1017.86 144.557 1010.29 151.445C1002.72 158.331 992.728 161.774 980.315 161.774H963.056L963.053 161.777ZM859.164 159.961C852.807 159.961 848.188 156.101 845.313 148.383L806.257 46.6553H823.516L858.483 142.022H858.707L893.674 46.6553H910.932L866.879 159.959H859.161L859.164 159.961ZM768.668 46.6577H785.014V159.961H768.668V46.6577ZM776.842 29.6282C773.209 29.6282 770.256 28.4936 767.984 26.2243C765.715 23.9526 764.578 21 764.578 17.3667C764.578 13.7334 765.715 10.7809 767.984 8.50916C770.253 6.24231 773.209 5.10523 776.842 5.10523C780.475 5.10523 783.425 6.24231 785.7 8.50916C787.969 10.7785 789.103 13.7334 789.103 17.3667C789.103 21 787.969 23.9501 785.7 26.2243C783.428 28.4936 780.475 29.6282 776.842 29.6282ZM638.437 1.02051H742.885V16.0051H655.24V74.1332H734.484V89.1203H655.24V159.964H638.437V1.02051Z" fill="white"/>
<path d="M586.261 91.6156V89.8002C586.261 83.8976 584.672 79.1662 581.493 75.6085C578.313 72.0508 574.075 70.2696 568.777 70.2696H550.386C544.937 70.2696 540.546 72.1607 537.217 75.9453C533.886 79.7299 532.222 84.7272 532.222 90.9323V91.6156H586.261ZM550.386 161.776C540.85 161.776 532.41 159.997 525.068 156.439C517.725 152.882 512.013 147.884 507.924 141.455C503.836 135.02 501.794 127.641 501.794 119.313V90.0222C501.794 81.089 503.836 73.2197 507.924 66.4093C512.013 59.5966 517.725 54.2967 525.068 50.5121C532.41 46.7275 540.85 44.8364 550.386 44.8364H568.551C583.081 44.8364 594.74 48.926 603.519 57.0979C612.299 65.2747 616.686 76.1746 616.686 89.7977V113.867H532.673V119.313C532.673 124.31 534.262 128.32 537.442 131.35C540.619 134.376 544.935 135.889 550.384 135.889H568.094C573.394 135.889 577.667 134.715 580.922 132.37C584.174 130.025 585.804 126.96 585.804 123.176H616.233C616.233 130.745 614.19 137.482 610.103 143.382C606.016 149.287 600.301 153.828 592.959 157.008C585.616 160.187 577.179 161.776 567.643 161.776H550.386ZM459.156 91.6156V89.8002C459.156 83.8976 457.567 79.1662 454.388 75.6085C451.211 72.0508 446.972 70.2696 441.673 70.2696H423.282C417.833 70.2696 413.443 72.1607 410.112 75.9453C406.782 79.7299 405.117 84.7272 405.117 90.9323V91.6156H459.156ZM423.282 161.776C413.746 161.776 405.305 159.997 397.963 156.439C390.623 152.882 384.908 147.884 380.821 141.455C376.734 135.02 374.689 127.641 374.689 119.313V90.0222C374.689 81.089 376.734 73.2197 380.821 66.4093C384.908 59.5966 390.623 54.2967 397.963 50.5121C405.305 46.7275 413.746 44.8364 423.282 44.8364H441.446C455.979 44.8364 467.635 48.926 476.415 57.0979C485.194 65.2747 489.584 76.1746 489.584 89.7977V113.867H405.569V119.313C405.569 124.31 407.157 128.32 410.337 131.35C413.516 134.376 417.83 135.889 423.279 135.889H440.989C446.289 135.889 450.564 134.715 453.819 132.37C457.072 130.025 458.699 126.96 458.699 123.176H489.128C489.128 130.745 487.085 137.482 482.998 143.382C478.911 149.287 473.199 153.828 465.854 157.008C458.514 160.187 450.074 161.776 440.538 161.776H423.282ZM312.072 132.712C318.733 132.712 323.879 131.387 327.513 128.739C331.146 126.089 332.961 122.344 332.961 117.498V107.508C332.961 103.118 331.37 99.5605 328.193 96.8374C325.014 94.1118 320.775 92.7478 315.478 92.7478H258.938V132.712H312.072ZM306.623 66.8632C311.466 66.8632 315.405 65.3089 318.43 62.2075C321.456 59.1037 322.974 54.9799 322.974 49.8313V42.1108C322.974 37.8723 321.383 34.505 318.203 32.0088C315.026 29.5101 310.788 28.2608 305.491 28.2608H258.941V66.8608H306.625L306.623 66.8632ZM249.629 159.958C243.122 159.958 237.822 157.991 233.735 154.055C229.647 150.119 227.605 144.976 227.605 138.614V1.01465H306.623C321.002 1.01465 332.546 4.42106 341.25 11.2314C349.954 18.0441 354.305 27.2018 354.305 38.7044V50.0582C354.305 55.0555 353.055 59.8211 350.557 64.3646C348.06 68.9056 344.542 72.6145 340.001 75.4889V75.7183C347.265 78.2902 353.131 82.453 357.596 88.2068C362.064 93.9581 364.295 100.393 364.295 107.508V119.316C364.295 131.728 359.79 141.606 350.786 148.948C341.78 156.29 329.63 159.96 314.341 159.96H249.627L249.629 159.958Z" fill="#F47220"/>
<path fill-rule="evenodd" clip-rule="evenodd" d="M54.7702 164.105C51.8128 166.24 48.4918 167.905 44.9195 168.99C40.8836 160.006 35.1736 151.588 27.7947 144.209C20.4159 136.83 11.9976 131.12 3.01318 127.082C4.09903 123.509 5.76068 120.191 7.89577 117.233C18.2808 121.145 28.0193 127.277 36.3742 135.634C44.7291 143.989 50.8636 153.728 54.7726 164.108L54.7702 164.105Z" fill="#F47220"/>
<path fill-rule="evenodd" clip-rule="evenodd" d="M65.0312 152.185C63.084 155.972 60.4339 159.342 57.2593 162.123C53.1868 151.689 46.9428 141.912 38.5147 133.484C30.089 125.058 20.309 118.812 9.87756 114.741C12.6568 111.564 16.0265 108.917 19.8136 106.97C29.7472 110.896 39.0613 116.872 47.0941 124.907C55.1269 132.94 61.1027 142.249 65.0288 152.182L65.0312 152.185Z" fill="#F47220"/>
<path fill-rule="evenodd" clip-rule="evenodd" d="M0 172L4.6605 163.006L7.98394 156.596C3.94802 151.059 1.56653 144.234 1.56653 136.855C1.56653 134.53 1.80305 132.256 2.25447 130.064C10.7338 133.944 18.6716 139.369 25.6527 146.35C32.6314 153.326 38.0581 161.268 41.933 169.745C39.7418 170.197 37.4702 170.433 35.1472 170.433C27.7683 170.433 20.9456 168.052 15.4017 164.016L8.99167 167.337L0 172Z" fill="#F47220"/>
<path fill-rule="evenodd" clip-rule="evenodd" d="M35.1443 103.274C53.6915 103.274 68.7273 118.31 68.7273 136.855C68.7273 140.884 68.0124 144.749 66.7142 148.328C62.6588 139.049 56.8368 130.355 49.2432 122.761C41.6472 115.165 32.9532 109.345 23.671 105.287C27.2506 103.984 31.1183 103.277 35.1469 103.277L35.1443 103.274Z" fill="#F47220"/>
<path fill-rule="evenodd" clip-rule="evenodd" d="M58.8894 9.83362C77.4854 25.665 60.3875 50.2148 91.0839 80.9137C121.783 111.613 146.333 94.5124 162.164 113.108C168.24 119.184 171.998 127.581 171.998 136.853C171.998 155.398 156.964 170.434 138.417 170.434C129.145 170.434 120.751 166.676 114.675 160.598C96.079 144.769 111.522 118.564 82.4754 89.5199C53.4334 60.4754 27.2267 75.9188 11.3978 57.3228C5.32435 51.2494 1.56396 42.8506 1.56396 33.5806C1.56396 15.0359 16.6001 0 35.1473 0C44.4172 0 52.8135 3.75777 58.8894 9.83362Z" fill="white"/>
<path fill-rule="evenodd" clip-rule="evenodd" d="M138.42 0C156.967 0 172 15.0359 172 33.5806C172 52.1278 156.967 67.1613 138.42 67.1613C119.872 67.1613 104.839 52.1278 104.839 33.5806C104.839 15.0359 119.872 0 138.42 0Z" fill="#F47220"/>
</svg>
