<svg width="300" height="172" viewBox="0 0 300 172" fill="none" xmlns="http://www.w3.org/2000/svg">
<path d="M293.616 146.385V144.189C293.616 141.088 292.788 138.595 291.132 136.708C289.475 134.819 287.277 133.875 284.535 133.875H277.509C274.596 133.875 272.24 134.862 270.441 136.834C268.641 138.807 267.742 141.4 267.742 144.611V146.386H293.616V146.385ZM277.509 172C272.711 172 268.855 170.606 265.943 167.816C263.031 165.026 261.574 161.32 261.574 156.699V144.61C261.574 139.765 263.031 135.861 265.943 132.902C268.856 129.943 272.711 128.463 277.509 128.463H284.535C289.105 128.463 292.788 129.902 295.587 132.776C298.386 135.649 299.786 139.454 299.786 144.188V151.626H267.743V156.698C267.743 159.629 268.642 162.01 270.441 163.841C272.241 165.674 274.597 166.588 277.51 166.588H284.022C286.877 166.588 289.191 165.814 290.962 164.265C292.732 162.715 293.617 160.644 293.617 158.052H299.616C299.616 162.222 298.188 165.589 295.331 168.154C292.475 170.717 288.706 171.999 284.022 171.999H277.51L277.509 172ZM238.308 171.324C235.91 171.324 234.167 169.887 233.082 167.014L218.345 129.14H224.857L238.051 164.645H238.136L251.33 129.14H257.842L241.219 171.323H238.307L238.308 171.324ZM204.161 129.141H210.329V171.324H204.161V129.141ZM207.246 122.801C205.875 122.801 204.761 122.379 203.903 121.534C203.047 120.688 202.618 119.589 202.618 118.236C202.618 116.883 203.047 115.784 203.903 114.938C204.76 114.095 205.875 113.671 207.246 113.671C208.616 113.671 209.73 114.095 210.588 114.938C211.444 115.783 211.872 116.883 211.872 118.236C211.872 119.589 211.444 120.687 210.588 121.534C209.731 122.379 208.616 122.801 207.246 122.801ZM155.021 112.15H194.433V117.729H161.361V139.37H191.263V144.95H161.361V171.325H155.021V112.15Z" fill="white"/>
<path d="M135.332 145.878V145.202C135.332 143.005 134.733 141.243 133.533 139.919C132.333 138.594 130.734 137.931 128.735 137.931H121.796C119.74 137.931 118.082 138.635 116.826 140.044C115.57 141.453 114.942 143.314 114.942 145.624V145.878H135.332ZM121.796 171.999C118.197 171.999 115.013 171.337 112.242 170.012C109.472 168.688 107.316 166.827 105.773 164.433C104.231 162.038 103.46 159.291 103.46 156.19V145.285C103.46 141.959 104.231 139.029 105.773 136.494C107.316 133.958 109.472 131.984 112.242 130.575C115.013 129.166 118.197 128.462 121.796 128.462H128.649C134.132 128.462 138.532 129.985 141.844 133.027C145.157 136.072 146.813 140.13 146.813 145.201V154.162H115.112V156.19C115.112 158.051 115.711 159.543 116.911 160.671C118.11 161.798 119.739 162.361 121.795 162.361H128.477C130.477 162.361 132.089 161.924 133.318 161.051C134.545 160.178 135.16 159.037 135.16 157.628H146.641C146.641 160.446 145.871 162.954 144.328 165.151C142.786 167.349 140.63 169.04 137.859 170.224C135.089 171.408 131.905 171.999 128.307 171.999H121.796ZM87.3714 145.878V145.202C87.3714 143.005 86.772 141.243 85.5723 139.919C84.3736 138.594 82.7742 137.931 80.7744 137.931H73.8349C71.7789 137.931 70.1225 138.635 68.8657 140.044C67.6089 141.453 66.981 143.314 66.981 145.624V145.878H87.3714ZM73.8349 171.999C70.2367 171.999 67.0519 171.337 64.2815 170.012C61.5119 168.688 59.3556 166.827 57.8134 164.433C56.2711 162.038 55.4996 159.291 55.4996 156.19V145.285C55.4996 141.959 56.2711 139.029 57.8134 136.494C59.3556 133.958 61.5119 131.984 64.2815 130.575C67.0519 129.166 70.2367 128.462 73.8349 128.462H80.6888C86.1726 128.462 90.5709 129.985 93.8837 133.027C97.1965 136.072 98.8529 140.13 98.8529 145.201V154.162H67.1514V156.19C67.1514 158.051 67.7507 159.543 68.9505 160.671C70.1502 161.798 71.778 162.361 73.834 162.361H80.5166C82.5164 162.361 84.1295 161.924 85.3578 161.051C86.5851 160.178 87.1992 159.037 87.1992 157.628H98.6807C98.6807 160.446 97.9101 162.954 96.3679 165.151C94.8256 167.349 92.6702 169.04 89.8988 170.224C87.1293 171.408 83.9445 171.999 80.3463 171.999H73.8349ZM31.8719 161.178C34.3855 161.178 36.3273 160.685 37.6982 159.699C39.0692 158.713 39.7542 157.318 39.7542 155.514V151.795C39.7542 150.161 39.1539 148.836 37.9551 147.822C36.7554 146.808 35.1561 146.3 33.1572 146.3H11.8231V161.178H31.8719ZM29.8159 136.663C31.6435 136.663 33.1296 136.084 34.2713 134.93C35.413 133.774 35.9857 132.239 35.9857 130.322V127.448C35.9857 125.87 35.3854 124.616 34.1857 123.687C32.9869 122.756 31.3876 122.291 29.3887 122.291H11.824V136.662H29.8168L29.8159 136.663ZM8.31048 171.322C5.8549 171.322 3.85509 170.59 2.31288 169.125C0.770659 167.659 0 165.744 0 163.376V112.147H29.8159C35.2417 112.147 39.5977 113.416 42.8819 115.951C46.1661 118.488 47.8078 121.897 47.8078 126.179V130.406C47.8078 132.267 47.3364 134.041 46.3936 135.733C45.4517 137.423 44.124 138.804 42.4105 139.874V139.96C45.1515 140.917 47.3649 142.467 49.0499 144.609C50.7357 146.75 51.5773 149.146 51.5773 151.795V156.191C51.5773 160.812 49.8776 164.49 46.4801 167.223C43.0817 169.957 38.4974 171.323 32.7281 171.323H8.30956L8.31048 171.322Z" fill="#F47220"/>
<path fill-rule="evenodd" clip-rule="evenodd" d="M127 95.1696C125.229 96.407 123.239 97.3719 121.1 98C118.683 92.7915 115.262 87.9126 110.843 83.6357C106.423 79.3589 101.383 76.0492 96 73.7087C96.6505 71.6386 97.6462 69.7145 98.9241 68C105.143 70.2667 110.976 73.8222 115.98 78.665C120.983 83.5063 124.657 89.1514 126.999 95.1681L127 95.1696Z" fill="#F47220"/>
<path fill-rule="evenodd" clip-rule="evenodd" d="M133 88.2325C131.835 90.4307 130.25 92.385 128.35 94C125.914 87.9467 122.177 82.2719 117.135 77.3842C112.095 72.4959 106.243 68.8702 100 66.5092C101.663 64.6663 103.681 63.1302 105.947 62C111.891 64.2778 117.462 67.7458 122.269 72.4069C127.075 77.068 130.651 82.4694 133 88.2325Z" fill="#F47220"/>
<path fill-rule="evenodd" clip-rule="evenodd" d="M94.0007 100L96.7785 94.8522L98.7593 91.1831C96.3532 88.0129 94.9331 84.109 94.9331 79.8861C94.9331 78.555 95.0736 77.2547 95.3428 76C100.397 78.2203 105.132 81.3248 109.293 85.3194C113.453 89.3132 116.688 93.8587 119 98.7103C117.693 98.9673 116.34 99.1029 114.955 99.1029C110.555 99.1029 106.487 97.7397 103.184 95.4302L99.3615 97.3315L94 99.9992L94.0007 100Z" fill="#F47220"/>
<path fill-rule="evenodd" clip-rule="evenodd" d="M114.876 60C125.99 60 135 68.3428 135 78.6336C135 80.8694 134.573 83.014 133.794 85C131.363 79.8508 127.874 75.0276 123.323 70.8133C118.773 66.599 113.562 63.368 108 61.1176C110.145 60.3945 112.462 60.0007 114.877 60.0007L114.876 60Z" fill="#F47220"/>
<path fill-rule="evenodd" clip-rule="evenodd" d="M129.307 5.65563C140.436 14.7583 130.203 28.874 148.575 46.5264C166.947 64.1788 181.639 54.3469 191.114 65.0386C194.752 68.533 197 73.3597 197 78.6919C197 89.3549 188.002 98 176.904 98C171.354 98 166.331 95.8394 162.693 92.3451C151.564 83.2431 160.807 68.1751 143.424 51.475C126.042 34.7749 110.359 43.6538 100.886 32.9621C97.2495 29.4685 95 24.6411 95 19.3096C95 8.64659 103.997 0 115.098 0C120.646 0 125.671 2.16201 129.307 5.65563Z" fill="white"/>
<path fill-rule="evenodd" clip-rule="evenodd" d="M177.001 0C188.045 0 197 8.73203 197 19.5004C197 30.2695 188.045 39 177.001 39C165.955 39 157 30.2695 157 19.5004C157 8.73203 165.955 0 177.001 0Z" fill="#F47220"/>
</svg>
