<svg width="17" height="17" viewBox="0 0 17 17" fill="none" xmlns="http://www.w3.org/2000/svg">
<path d="M8.0326 0.951378C8.23217 0.337171 9.10111 0.337171 9.30068 0.951378L10.7621 5.44919C10.8514 5.72387 11.1073 5.90984 11.3961 5.90984H16.1254C16.7712 5.90984 17.0397 6.73625 16.5173 7.11585L12.6912 9.89565C12.4576 10.0654 12.3598 10.3663 12.449 10.641L13.9105 15.1388C14.11 15.753 13.407 16.2638 12.8846 15.8842L9.0585 13.1044C8.82484 12.9346 8.50844 12.9346 8.27478 13.1044L4.44872 15.8842C3.92624 16.2638 3.22326 15.753 3.42282 15.1388L4.88425 10.641C4.9735 10.3663 4.87573 10.0654 4.64207 9.89565L0.816005 7.11585C0.293529 6.73625 0.562046 5.90984 1.20786 5.90984H5.93714C6.22595 5.90984 6.48192 5.72387 6.57117 5.44919L8.0326 0.951378Z" fill="#F47220"/>
</svg>
