<svg width="240" height="66" viewBox="0 0 240 66" fill="none" xmlns="http://www.w3.org/2000/svg">
<path d="M236.16 21.8325V20.447C236.16 18.4915 235.645 16.9187 234.614 15.7287C233.583 14.5375 232.215 13.9422 230.509 13.9422H226.137C224.323 13.9422 222.858 14.5644 221.738 15.8083C220.618 17.0528 220.059 18.688 220.059 20.7135V21.8331H236.16V21.8325ZM226.137 37.9879C223.151 37.9879 220.752 37.1083 218.939 35.3488C217.126 33.5892 216.22 31.252 216.22 28.3374V20.7129C216.22 17.6567 217.126 15.1947 218.939 13.3285C220.752 11.4624 223.151 10.529 226.137 10.529H230.509C233.353 10.529 235.645 11.436 237.387 13.2489C239.129 15.0612 240 17.4607 240 20.4465V25.1379H220.059V28.3368C220.059 30.1852 220.619 31.6869 221.739 32.842C222.858 33.9977 224.324 34.5747 226.137 34.5747H230.189C231.966 34.5747 233.406 34.0865 234.508 33.109C235.61 32.1315 236.161 30.8252 236.161 29.1905H239.894C239.894 31.8204 239.005 33.9444 237.228 35.5619C235.45 37.1788 233.105 37.9873 230.189 37.9873H226.137L226.137 37.9879ZM201.742 37.5616C200.249 37.5616 199.165 36.6551 198.49 34.8428L189.319 10.9559H193.371L201.582 33.3491H201.635L209.846 10.9559H213.898L203.554 37.561H201.742L201.742 37.5616ZM180.492 10.9564H184.331V37.5616H180.492V10.9564ZM182.412 6.95769C181.559 6.95769 180.866 6.69127 180.332 6.15841C179.799 5.62498 179.532 4.93168 179.532 4.07854C179.532 3.22539 179.799 2.5321 180.332 1.99867C180.865 1.46638 181.559 1.19938 182.412 1.19938C183.265 1.19938 183.958 1.46638 184.491 1.99867C185.024 2.53152 185.291 3.22539 185.291 4.07854C185.291 4.93168 185.024 5.6244 184.491 6.15841C183.959 6.69127 183.265 6.95769 182.412 6.95769ZM149.913 0.240234H174.439V3.75882H153.858V17.408H172.465V20.9272H153.858V37.5621H149.913V0.240234Z" fill="white"/>
<path d="M137.662 21.5122V21.0859C137.662 19.6999 137.289 18.5889 136.543 17.7535C135.796 16.9181 134.801 16.4999 133.557 16.4999H129.238C127.958 16.4999 126.928 16.9439 126.146 17.8326C125.364 18.7212 124.973 19.8947 124.973 21.3517V21.5122H137.662ZM129.238 37.9867C126.999 37.9867 125.017 37.569 123.293 36.7336C121.569 35.8982 120.227 34.7248 119.268 33.215C118.308 31.7041 117.828 29.9714 117.828 28.0159V21.138C117.828 19.0404 118.308 17.1926 119.268 15.5934C120.227 13.9937 121.569 12.7492 123.293 11.8605C125.017 10.9719 126.999 10.5278 129.238 10.5278H133.503C136.915 10.5278 139.653 11.4881 141.714 13.407C143.776 15.327 144.806 17.8864 144.806 21.0853V26.737H125.079V28.0159C125.079 29.1893 125.452 30.1307 126.198 30.8424C126.945 31.5528 127.958 31.9081 129.238 31.9081H133.396C134.64 31.9081 135.644 31.6325 136.408 31.0819C137.172 30.5312 137.555 29.8116 137.555 28.9229H144.699C144.699 30.7003 144.22 32.2822 143.26 33.6676C142.301 35.0542 140.959 36.1205 139.234 36.8671C137.511 37.6137 135.529 37.9867 133.29 37.9867H129.238ZM107.816 21.5122V21.0859C107.816 19.6999 107.443 18.5889 106.697 17.7535C105.95 16.9181 104.955 16.4999 103.711 16.4999H99.3925C98.1131 16.4999 97.0817 16.9439 96.3002 17.8326C95.5181 18.7212 95.1273 19.8947 95.1273 21.3517V21.5122H107.816ZM99.3925 37.9867C97.1533 37.9867 95.1714 37.569 93.4474 36.7336C91.7233 35.8982 90.382 34.7248 89.4217 33.215C88.462 31.7041 87.9824 29.9714 87.9824 28.0159V21.138C87.9824 19.0404 88.462 17.1926 89.4217 15.5934C90.382 13.9937 91.7233 12.7492 93.4474 11.8605C95.1714 10.9719 97.1533 10.5278 99.3925 10.5278H103.658C107.07 10.5278 109.807 11.4881 111.869 13.407C113.93 15.327 114.961 17.8864 114.961 21.0853V26.737H95.2333V28.0159C95.2333 29.1893 95.6063 30.1307 96.3529 30.8424C97.0989 31.5528 98.1125 31.9081 99.3919 31.9081H103.551C104.795 31.9081 105.798 31.6325 106.563 31.0819C107.326 30.5312 107.709 29.8116 107.709 28.9229H114.854C114.854 30.7003 114.374 32.2822 113.415 33.6676C112.455 35.0542 111.113 36.1205 109.389 36.8671C107.665 37.6137 105.684 37.9867 103.445 37.9867H99.3925ZM73.2784 31.1621C74.8426 31.1621 76.0515 30.8509 76.9047 30.2293C77.7578 29.607 78.1836 28.7275 78.1836 27.5896V25.2439C78.1836 24.2131 77.8106 23.3777 77.064 22.7383C76.318 22.0983 75.3227 21.778 74.0782 21.778H60.8026V31.1621H73.2784ZM71.9995 15.7C73.1369 15.7 74.0611 15.335 74.7721 14.6068C75.4826 13.878 75.8384 12.9096 75.8384 11.7007V9.88781C75.8384 8.89257 75.4654 8.10188 74.7188 7.51574C73.9722 6.92902 72.977 6.63565 71.7331 6.63565H60.8032V15.6994H72.0001L71.9995 15.7ZM58.6168 37.5598C57.0886 37.5598 55.8442 37.098 54.8844 36.1738C53.9247 35.2496 53.4446 34.0418 53.4446 32.5481V0.237915H71.9995C75.376 0.237915 78.0867 1.03778 80.1299 2.63693C82.1743 4.23666 83.1959 6.38699 83.1959 9.08795V11.754C83.1959 12.9274 82.9019 14.0464 82.3158 15.1133C81.7296 16.1796 80.9034 17.0505 79.8366 17.7254V17.7793C81.5429 18.3832 82.9203 19.3607 83.9688 20.7117C85.0173 22.0622 85.5416 23.5731 85.5416 25.2439V28.0165C85.5416 30.9312 84.4839 33.2505 82.3696 34.9746C80.2548 36.6986 77.4015 37.5604 73.8118 37.5604H58.6162L58.6168 37.5598Z" fill="#F47220"/>
<path d="M0.333402 62.1907H1.41459C1.55955 62.1907 1.6243 62.1099 1.6243 61.965V55.4819H5.38181V61.965C5.38181 62.1099 5.44656 62.1907 5.59209 62.1907H6.65666C6.81766 62.1907 6.88241 62.1099 6.88241 61.965V54.3525C6.88241 54.2076 6.81766 54.1268 6.65666 54.1268H0.350587C0.18901 54.1268 0.124268 54.2076 0.124268 54.3525V61.965C0.124268 62.1099 0.172972 62.1907 0.333975 62.1907H0.333402ZM14.4358 62.2715H15.3228C17.2583 62.2715 18.226 61.239 18.226 59.4972V56.8363C18.226 55.0945 17.2749 54.062 15.3228 54.062H14.4358C12.5003 54.062 11.5492 55.0945 11.5492 56.8363V59.4972C11.5492 61.239 12.5003 62.2715 14.4358 62.2715ZM14.4845 60.901C13.5649 60.901 13.0492 60.4174 13.0492 59.4817V56.8529C13.0492 55.9173 13.5649 55.4337 14.4845 55.4337H15.2746C16.2103 55.4337 16.7099 55.9173 16.7099 56.8529V59.4817C16.7099 60.4174 16.2103 60.901 15.2746 60.901H14.4845ZM27.845 58.0138C28.7646 57.6425 28.8454 56.9011 28.8454 56.3688C28.8454 54.7078 27.9905 54.1274 26.5392 54.1274H23.1363C22.9747 54.1274 22.894 54.2082 22.894 54.3692V61.9495C22.894 62.1105 22.9747 62.1913 23.1363 62.1913H26.5873C28.1681 62.1913 29.0551 61.6109 29.0551 59.9819C29.0551 59.1918 28.8288 58.4825 27.845 58.1433V58.0144V58.0138ZM24.394 55.4658H26.4263C26.9901 55.4658 27.3453 55.7403 27.3453 56.4656C27.3453 57.0781 27.0869 57.4654 26.5231 57.4654H24.3946V55.4658H24.394ZM26.4905 60.8523H24.394V58.6429L26.5386 58.6595C27.1511 58.6595 27.5545 58.95 27.5545 59.7883C27.5545 60.6592 27.1035 60.8528 26.4899 60.8528L26.4905 60.8523ZM37.6255 56.6914H35.2231V54.3531C35.2231 54.2081 35.1583 54.1274 35.0134 54.1274H33.9488C33.7872 54.1274 33.7225 54.2081 33.7225 54.3531V61.9655C33.7225 62.1105 33.7872 62.1913 33.9488 62.1913H37.6255C39.5449 62.1913 40.3351 61.482 40.3351 59.4496C40.3351 57.4013 39.5449 56.6914 37.6255 56.6914ZM42.4636 54.1274H41.3991C41.2541 54.1274 41.1894 54.2081 41.1894 54.3531V61.9655C41.1894 62.1105 41.2541 62.1913 41.3991 62.1913H42.4636C42.6252 62.1913 42.69 62.1105 42.69 61.9655V54.3531C42.69 54.2081 42.6252 54.1274 42.4636 54.1274ZM37.3837 60.8362H35.2231V58.0459H37.3837C38.3354 58.0459 38.835 58.3203 38.835 59.4491C38.835 60.5618 38.3354 60.8357 37.3837 60.8357V60.8362ZM47.7452 62.1907H57.4055C57.567 62.1907 57.6312 62.1099 57.6312 61.965V54.3525C57.6312 54.2076 57.567 54.1268 57.4055 54.1268H56.3409C56.1959 54.1268 56.1312 54.2076 56.1312 54.3525V60.8357H53.3248V54.3525C53.3248 54.2076 53.2601 54.1268 53.0991 54.1268H52.0184C51.8729 54.1268 51.8248 54.2076 51.8248 54.3525V60.8357H49.0184V54.3525C49.0184 54.2076 48.9536 54.1268 48.8087 54.1268H47.7275C47.5665 54.1268 47.5178 54.2076 47.5178 54.3525V61.965C47.5178 62.1099 47.5825 62.1907 47.7441 62.1907H47.7452ZM65.9925 54.0626H65.6373C64.5406 54.0626 63.6537 54.2563 63.1374 54.4499C63.0246 54.4826 62.9764 54.5794 63.0085 54.6923L63.1535 55.4985C63.1861 55.6274 63.283 55.6921 63.4119 55.644C63.8955 55.4985 64.6701 55.4016 65.4121 55.4016C66.9603 55.4016 67.3476 55.9013 67.3476 56.8369V57.4013H64.7188C63.0899 57.4013 62.219 57.9978 62.219 59.4496V59.9006C62.219 61.3845 62.977 62.2715 64.638 62.2715H64.7509C65.8963 62.2715 66.6537 61.7392 67.186 61.0614H67.3476V61.965C67.3476 62.1099 67.4278 62.1907 67.5733 62.1907H68.6379C68.7995 62.1907 68.8636 62.1099 68.8636 61.965V56.7556C68.8636 55.0458 68.0254 54.062 65.9931 54.062L65.9925 54.0626ZM65.541 60.9491H64.9285C64.1384 60.9491 63.7024 60.6426 63.7024 59.8364V59.5459C63.7024 58.7392 64.1539 58.5295 64.9125 58.5295H67.3476V59.3843C67.3476 60.1584 66.6216 60.9485 65.541 60.9485V60.9491ZM79.7724 54.1274H75.9341C74.3217 54.1274 73.5958 55.0143 73.5958 56.4496C73.5958 57.2557 73.7734 58.0138 74.6764 58.4011V58.4979C73.7734 58.8366 73.5316 59.5465 73.5316 60.4655V61.9495C73.5316 62.1105 73.6118 62.1913 73.7574 62.1913H74.8059C74.9669 62.1913 75.0316 62.1105 75.0316 61.9495V60.5784C75.0316 59.7401 75.2253 59.2405 76.1123 59.2405H78.4992V61.9661C78.4992 62.1111 78.5634 62.1919 78.7089 62.1919H79.7735C79.9351 62.1919 79.9993 62.1111 79.9993 61.9661V54.3537C79.9993 54.2087 79.9351 54.1279 79.7735 54.1279L79.7724 54.1274ZM76.0951 57.9015C75.3531 57.9015 75.0626 57.466 75.0626 56.6433C75.0626 55.8852 75.3857 55.53 76.0951 55.53H78.4981V57.9009H76.0951V57.9015ZM94.6643 54.0632H93.8421C92.0516 54.0632 91.0357 55.047 91.0357 56.6117V56.7086C91.0357 56.8535 91.0999 56.9343 91.2615 56.9343H92.2613C92.4229 56.9343 92.4876 56.8535 92.4876 56.7086V56.6278C92.4876 55.8698 93.0033 55.4337 93.8903 55.4337H94.6162C95.5192 55.4337 96.0509 55.9339 96.0509 56.869V57.5623H94.5028C94.3418 57.5623 94.277 57.627 94.277 57.7886V58.6756C94.277 58.8366 94.3418 58.9013 94.5028 58.9013H96.0509V59.3849C96.0509 60.3687 95.5032 60.9491 94.261 60.9491H94.1481C93.0675 60.9491 92.6807 60.7554 92.3415 60.2237C92.2607 60.0942 92.1805 60.0301 91.9703 60.1109L91.293 60.4334C91.116 60.5142 91.0833 60.611 91.148 60.756C91.6477 61.8366 92.6641 62.2721 94.1636 62.2721H94.3085C96.5826 62.2721 97.5504 61.2075 97.5504 59.4978V56.8369C97.5504 55.1111 96.5826 54.0626 94.6632 54.0626L94.6643 54.0632ZM111.186 54.0632H110.799C109.863 54.0632 109.266 54.4184 108.895 54.9501H108.734V51.1285C108.734 50.9835 108.653 50.9027 108.508 50.9027H107.443C107.282 50.9027 107.217 50.9835 107.217 51.1285V54.9501H107.056C106.685 54.4184 106.088 54.0632 105.153 54.0632H104.782C102.975 54.0632 102.056 55.0149 102.056 56.7888V59.547C102.056 61.3209 102.975 62.2727 104.782 62.2727H105.153C106.088 62.2727 106.685 61.9174 107.056 61.3857H107.217V61.9661C107.217 62.0142 107.217 62.0469 107.234 62.079V64.8206C107.234 64.9662 107.298 65.0464 107.459 65.0464H108.508C108.669 65.0464 108.734 64.9662 108.734 64.8206V61.3857H108.895C109.266 61.9174 109.863 62.2727 110.799 62.2727H111.186C112.992 62.2727 113.895 61.3209 113.895 59.547V56.7888C113.895 55.0149 112.992 54.0632 111.186 54.0632ZM105.767 60.9015H105.025C104.09 60.9015 103.557 60.3853 103.557 59.4176V56.9183C103.557 55.9505 104.09 55.4343 105.025 55.4343H105.767C106.686 55.4343 107.218 55.9666 107.218 56.9022V59.4342C107.218 60.3693 106.686 60.9015 105.767 60.9015ZM112.395 59.4176C112.395 60.3853 111.879 60.9015 110.927 60.9015H110.185C109.266 60.9015 108.734 60.3693 108.734 59.4342V56.9022C108.734 55.9666 109.266 55.4343 110.185 55.4343H110.927C111.879 55.4343 112.395 55.9505 112.395 56.9183V59.4176ZM127.53 54.0632H127.142C126.207 54.0632 125.61 54.4184 125.239 54.9501H125.077V51.1285C125.077 50.9835 124.997 50.9027 124.852 50.9027H123.787C123.626 50.9027 123.561 50.9835 123.561 51.1285V54.9501H123.4C123.028 54.4184 122.432 54.0632 121.497 54.0632H121.126C119.319 54.0632 118.4 55.0149 118.4 56.7888V59.547C118.4 61.3209 119.319 62.2727 121.126 62.2727H121.497C122.432 62.2727 123.028 61.9174 123.4 61.3857H123.561V61.9661C123.561 62.0142 123.561 62.0469 123.577 62.079V64.8206C123.577 64.9662 123.642 65.0464 123.803 65.0464H124.852C125.013 65.0464 125.077 64.9662 125.077 64.8206V61.3857H125.239C125.61 61.9174 126.207 62.2727 127.142 62.2727H127.53C129.336 62.2727 130.239 61.3209 130.239 59.547V56.7888C130.239 55.0149 129.336 54.0632 127.53 54.0632ZM122.111 60.9015H121.369C120.434 60.9015 119.901 60.3853 119.901 59.4176V56.9183C119.901 55.9505 120.434 55.4343 121.369 55.4343H122.111C123.03 55.4343 123.562 55.9666 123.562 56.9022V59.4342C123.562 60.3693 123.03 60.9015 122.111 60.9015ZM128.739 59.4176C128.739 60.3853 128.223 60.9015 127.271 60.9015H126.529C125.61 60.9015 125.078 60.3693 125.078 59.4342V56.9022C125.078 55.9666 125.61 55.4343 126.529 55.4343H127.271C128.223 55.4343 128.739 55.9505 128.739 56.9183V59.4176ZM138.197 62.2727C139.439 62.2727 140.471 61.8532 140.987 61.3209C141.052 61.2728 141.052 61.176 140.971 61.0792L140.632 60.579C140.568 60.45 140.471 60.418 140.325 60.4988C139.874 60.7566 139.309 60.9657 138.197 60.9657H138.035C136.793 60.9657 136.245 60.3532 136.245 59.4823V58.773H140.809C141.132 58.773 141.309 58.5793 141.309 58.2733V56.8381C141.309 55.0962 140.357 54.0638 138.422 54.0638H137.632C135.713 54.0638 134.745 55.1123 134.745 56.8381V59.4989C134.745 61.1766 135.68 62.2732 138.002 62.2732H138.196L138.197 62.2727ZM136.245 57.6437V56.8696C136.245 55.9345 136.777 55.4343 137.68 55.4343H138.374C139.293 55.4343 139.809 55.9179 139.809 56.8535V57.6437H136.245H136.245ZM152.429 61.8532L148.638 58.1759L152.267 54.4986C152.445 54.321 152.396 54.1274 152.202 54.1274H150.864C150.703 54.1274 150.622 54.2081 150.509 54.305L147.478 57.4654V54.3531C147.478 54.2081 147.413 54.1274 147.268 54.1274H146.203C146.042 54.1274 145.977 54.2081 145.977 54.3531V61.9655C145.977 62.1105 146.042 62.1913 146.203 62.1913H147.268C147.413 62.1913 147.478 62.1105 147.478 61.9655V58.8692L150.59 61.9976C150.735 62.1432 150.816 62.1913 150.977 62.1913H152.332C152.525 62.1913 152.557 61.9816 152.429 61.8527V61.8532ZM162.241 54.1279H156.645C156.499 54.1279 156.419 54.1927 156.419 54.3537V55.3054C156.419 55.4509 156.499 55.5311 156.645 55.5311H158.693V61.9661C158.693 62.1111 158.758 62.1919 158.919 62.1919H159.968C160.129 62.1919 160.193 62.1111 160.193 61.9661V55.5311H162.242C162.387 55.5311 162.468 55.4509 162.468 55.3054V54.3537C162.468 54.1927 162.387 54.1279 162.242 54.1279H162.241ZM167.168 62.1913H168.909C169.038 62.1913 169.135 62.1432 169.2 62.0137L172.264 55.8205H172.409V61.9655C172.409 62.1105 172.473 62.1913 172.619 62.1913H173.683C173.844 62.1913 173.909 62.1105 173.909 61.9655V54.3531C173.909 54.2081 173.844 54.1274 173.683 54.1274H171.941C171.812 54.1274 171.715 54.1755 171.651 54.305L168.587 60.4982H168.442V54.3531C168.442 54.2081 168.377 54.1274 168.232 54.1274H167.168C167.006 54.1274 166.941 54.2081 166.941 54.3531V61.9655C166.941 62.1105 167.006 62.1913 167.168 62.1913ZM183.688 58.0144C184.608 57.6431 184.689 56.9017 184.689 56.3694C184.689 54.7083 183.834 54.1279 182.383 54.1279H178.98C178.818 54.1279 178.737 54.2087 178.737 54.3697V61.9501C178.737 62.1111 178.818 62.1919 178.98 62.1919H182.431C184.012 62.1919 184.899 61.6114 184.899 59.9825C184.899 59.1924 184.672 58.4831 183.688 58.1439V58.0149V58.0144ZM180.237 55.4664H182.27C182.834 55.4664 183.189 55.7408 183.189 56.4662C183.189 57.0787 182.93 57.466 182.367 57.466H180.238V55.4664H180.237ZM182.334 60.8528H180.237V58.6435L182.382 58.6601C182.995 58.6601 183.398 58.9506 183.398 59.7888C183.398 60.6598 182.947 60.8534 182.333 60.8534L182.334 60.8528ZM196.098 54.1279H195.034C194.888 54.1279 194.823 54.2087 194.823 54.3537V57.4827H191.066V54.3537C191.066 54.2087 191.001 54.1279 190.856 54.1279H189.792C189.63 54.1279 189.565 54.2087 189.565 54.3537V61.9661C189.565 62.1111 189.63 62.1919 189.792 62.1919H190.856C191.001 62.1919 191.066 62.1111 191.066 61.9661V58.8372H194.823V61.9661C194.823 62.1111 194.888 62.1919 195.034 62.1919H196.098C196.259 62.1919 196.324 62.1111 196.324 61.9661V54.3537C196.324 54.2087 196.259 54.1279 196.098 54.1279ZM203.879 62.2721H204.766C206.701 62.2721 207.669 61.2396 207.669 59.4978V56.8369C207.669 55.0951 206.718 54.0626 204.766 54.0626H203.879C201.943 54.0626 200.992 55.0951 200.992 56.8369V59.4978C200.992 61.2396 201.943 62.2721 203.879 62.2721ZM203.927 60.9015C203.008 60.9015 202.492 60.418 202.492 59.4823V56.8535C202.492 55.9179 203.008 55.4343 203.927 55.4343H204.717C205.653 55.4343 206.153 55.9179 206.153 56.8535V59.4823C206.153 60.418 205.653 60.9015 204.717 60.9015H203.927ZM215.417 62.2721H215.562C217.062 62.2721 218.078 61.8366 218.578 60.756C218.642 60.611 218.61 60.5142 218.433 60.4334L217.755 60.1109C217.546 60.0301 217.465 60.0942 217.384 60.2237C217.045 60.7554 216.659 60.9491 215.578 60.9491H215.465C214.223 60.9491 213.675 60.3687 213.675 59.3849V56.869C213.675 55.9339 214.207 55.4337 215.11 55.4337H215.835C216.722 55.4337 217.239 55.8692 217.239 56.6278V56.7086C217.239 56.8535 217.303 56.9343 217.464 56.9343H218.464C218.626 56.9343 218.69 56.8535 218.69 56.7086V56.6117C218.69 55.047 217.674 54.0632 215.884 54.0632H215.061C213.142 54.0632 212.175 55.1117 212.175 56.8375V59.4983C212.175 61.2081 213.142 62.2727 215.416 62.2727L215.417 62.2721ZM228.359 54.1279H222.763C222.618 54.1279 222.537 54.1927 222.537 54.3537V55.3054C222.537 55.4509 222.618 55.5311 222.763 55.5311H224.811V61.9661C224.811 62.1111 224.876 62.1919 225.037 62.1919H226.086C226.247 62.1919 226.311 62.1111 226.311 61.9661V55.5311H228.36C228.505 55.5311 228.586 55.4509 228.586 55.3054V54.3537C228.586 54.1927 228.505 54.1279 228.36 54.1279H228.359ZM236.962 56.6919H234.56V54.3537C234.56 54.2087 234.495 54.1279 234.35 54.1279H233.286C233.124 54.1279 233.059 54.2087 233.059 54.3537V61.9661C233.059 62.1111 233.124 62.1919 233.286 62.1919H236.962C238.882 62.1919 239.672 61.4825 239.672 59.4502C239.672 57.4019 238.882 56.6919 236.962 56.6919ZM236.721 60.8368H234.56V58.0464H236.721C237.672 58.0464 238.172 58.3209 238.172 59.4496C238.172 60.5624 237.672 60.8362 236.721 60.8362V60.8368Z" fill="white"/>
<path fill-rule="evenodd" clip-rule="evenodd" d="M12.8615 38.5335C12.1671 39.0348 11.3873 39.4256 10.5485 39.6805C9.60078 37.5709 8.26003 35.5941 6.52738 33.8615C4.79473 32.1288 2.818 30.7881 0.707764 29.8398C0.963307 29.001 1.35349 28.2218 1.85484 27.5273C4.29281 28.4458 6.57952 29.8857 8.54193 31.8481C10.5038 33.8099 11.9442 36.0966 12.8621 38.534L12.8615 38.5335Z" fill="#F47220"/>
<path fill-rule="evenodd" clip-rule="evenodd" d="M15.2704 35.7351C14.8132 36.6243 14.191 37.4156 13.4455 38.0687C12.4892 35.6187 11.0225 33.3229 9.044 31.3438C7.06555 29.3654 4.7691 27.8986 2.31909 26.9429C2.97227 26.1969 3.76354 25.5752 4.65278 25.118C6.98533 26.0399 9.17177 27.4431 11.058 29.3299C12.9448 31.2161 14.348 33.4019 15.2699 35.7345L15.2704 35.7351Z" fill="#F47220"/>
<path fill-rule="evenodd" clip-rule="evenodd" d="M0 40.3884L1.09437 38.2764L1.87475 36.7712C0.927065 35.4712 0.367847 33.8686 0.367847 32.1359C0.367847 31.5899 0.423422 31.0559 0.529421 30.5414C2.52048 31.4524 4.38434 32.7261 6.0236 34.3654C7.66228 36.0035 8.93657 37.8685 9.84644 39.859C9.33191 39.965 8.79848 40.0205 8.25301 40.0205C6.51979 40.0205 4.91835 39.4613 3.61657 38.5136L2.11139 39.2934L0 40.3884Z" fill="#F47220"/>
<path fill-rule="evenodd" clip-rule="evenodd" d="M8.25232 24.2508C12.6074 24.2508 16.1375 27.7814 16.1375 32.136C16.1375 33.0819 15.9702 33.9895 15.6654 34.83C14.7131 32.6511 13.346 30.6096 11.5623 28.8265C9.77927 27.0429 7.73779 25.6763 5.55823 24.7235C6.39877 24.4175 7.30635 24.2514 8.25289 24.2514L8.25232 24.2508Z" fill="#F47220"/>
<path fill-rule="evenodd" clip-rule="evenodd" d="M13.8276 2.30906C18.1941 6.02647 14.1799 11.7911 21.3879 18.9996C28.5964 26.2081 34.361 22.1927 38.0784 26.5593C39.5051 27.986 40.3874 29.9576 40.3874 32.1348C40.3874 36.4894 36.8568 40.02 32.5023 40.02C30.325 40.02 28.354 39.1376 26.9267 37.7104C22.5602 33.9935 26.187 27.8404 19.3664 21.0204C12.5464 14.2004 6.39332 17.8267 2.67649 13.4601C1.25038 12.034 0.367432 10.0619 0.367432 7.88516C0.367432 3.53061 3.89805 0 8.25317 0C10.4299 0 12.4015 0.882371 13.8276 2.30906Z" fill="white"/>
<path fill-rule="evenodd" clip-rule="evenodd" d="M32.5028 0C36.8574 0 40.388 3.53061 40.388 7.88516C40.388 12.2403 36.8574 15.7703 32.5028 15.7703C28.1477 15.7703 24.6171 12.2403 24.6171 7.88516C24.6171 3.53061 28.1477 0 32.5028 0Z" fill="#F47220"/>
</svg>
